<?xml version="1.0" standalone="no"?>
<!DOCTYPE svg PUBLIC "-//W3C//DTD SVG 20010904//EN"
 "http://www.w3.org/TR/2001/REC-SVG-20010904/DTD/svg10.dtd">
<svg version="1.0" xmlns="http://www.w3.org/2000/svg"
 width="600.000000pt" height="600.000000pt" viewBox="0 0 600.000000 600.000000"
 preserveAspectRatio="xMidYMid meet">

<g transform="translate(0.000000,600.000000) scale(0.100000,-0.100000)"
fill="#000000" stroke="none">
<path d="M3213 4551 c-34 -9 -65 -20 -69 -24 -4 -4 -14 -7 -22 -7 -13 0 -169
-74 -181 -85 -2 -3 57 -67 132 -142 74 -76 148 -153 162 -170 15 -18 34 -33
43 -33 10 0 72 21 140 47 118 46 123 49 131 83 10 36 23 147 15 120 -3 -11
-42 22 -127 107 -78 78 -129 122 -142 122 -11 -1 -48 -9 -82 -18z"/>
<path d="M3696 4485 c8 -38 20 -60 47 -91 26 -30 37 -30 37 0 0 15 -18 43 -45
73 -44 46 -45 47 -39 18z"/>
<path d="M3986 4158 c7 -57 14 -75 14 -39 0 21 1 21 26 -6 l27 -28 -6 39 c-6
36 -40 86 -59 86 -5 0 -6 -24 -2 -52z"/>
<path d="M3611 3991 c-17 -36 -37 -84 -44 -105 -13 -39 -13 -40 17 -67 17 -15
34 -25 39 -22 10 6 68 122 78 157 7 25 4 34 -25 66 l-34 38 -31 -67z"/>
<path d="M3955 3930 c-4 -17 -5 -34 -2 -36 2 -3 7 10 11 27 8 42 0 50 -9 9z"/>
<path d="M3724 3922 c-13 -8 -34 -48 -84 -156 -25 -55 -29 -71 -18 -77 23 -15
30 -10 24 15 -8 34 12 43 24 12 6 -16 21 -28 42 -34 34 -10 33 -11 -19 -27
-15 -5 -13 -9 9 -30 36 -33 78 -89 78 -104 0 -13 -40 -6 -82 16 -16 7 -28 11
-28 9 0 -3 15 -13 33 -22 17 -9 42 -26 54 -37 13 -11 24 -19 26 -16 1 2 14 28
27 57 20 45 40 67 40 45 0 -5 11 -21 24 -36 21 -24 23 -33 15 -55 -6 -15 -17
-34 -25 -43 -11 -12 -12 -19 -4 -24 11 -7 83 136 139 279 36 88 41 121 10 58
l-21 -42 -30 29 c-26 26 -30 35 -25 66 7 40 -8 48 -17 9 -9 -32 -16 -29 -58
26 -19 25 -42 46 -52 48 -10 2 -26 12 -37 23 -21 21 -28 23 -45 11z"/>
<path d="M2713 3843 c9 -2 23 -2 30 0 6 3 -1 5 -18 5 -16 0 -22 -2 -12 -5z"/>
<path d="M2649 3823 c-13 -15 -12 -15 11 -3 34 17 36 20 18 20 -9 0 -22 -7
-29 -17z"/>
<path d="M3040 3678 c-36 -50 -79 -107 -96 -127 l-32 -36 62 -27 c114 -49 99
-55 209 91 53 71 97 132 97 134 0 3 -17 11 -37 18 -21 6 -42 15 -48 19 -5 4
-28 10 -50 14 l-40 5 -65 -91z"/>
<path d="M3473 3649 c22 -11 41 -18 44 -15 4 3 -10 13 -30 21 -51 21 -59 18
-14 -6z"/>
<path d="M1828 3516 l-27 -32 170 -171 c93 -94 169 -177 169 -185 0 -19 -116
-138 -134 -138 -8 0 -21 7 -28 16 -75 94 -276 294 -295 294 -7 0 -13 4 -13 10
0 5 6 8 13 6 6 -1 9 -1 4 1 -4 3 -5 10 -1 16 26 54 -183 -209 -260 -327 -81
-124 -150 -256 -126 -241 6 3 10 1 10 -4 0 -6 6 -11 14 -11 8 0 22 -10 31 -22
8 -13 73 -82 144 -154 109 -111 129 -136 124 -155 -3 -13 16 10 43 51 83 129
175 263 213 309 20 25 43 55 51 67 20 29 152 191 227 277 l60 68 -177 180
c-97 98 -178 179 -181 178 -2 0 -16 -15 -31 -33z"/>
<path d="M2806 3459 c-14 -17 -26 -37 -26 -44 0 -9 -7 -12 -17 -9 -30 8 42
-24 122 -55 70 -27 261 -121 245 -121 -22 0 6 -25 51 -45 35 -16 42 -17 50 -4
7 11 9 10 9 -6 0 -21 -19 -53 -60 -99 -91 -103 -93 -106 -61 -106 34 0 88 -43
112 -90 13 -25 27 -46 32 -48 15 -7 5 -29 -39 -82 -25 -30 -54 -67 -65 -82
l-19 -26 40 -30 40 -29 -47 -54 c-26 -30 -50 -56 -53 -59 -3 -3 -25 -28 -50
-55 l-45 -49 59 52 c75 65 213 214 337 362 145 175 162 200 139 200 -5 0 -10
-5 -10 -11 0 -12 -97 -129 -133 -161 -17 -16 -43 -16 -33 0 2 4 -6 16 -17 27
-11 11 -16 14 -12 6 5 -9 4 -12 -3 -7 -7 4 -12 11 -12 15 0 14 131 171 143
171 17 1 -24 31 -122 91 -68 42 -81 53 -67 61 9 5 16 16 16 23 0 8 3 15 8 15
4 0 14 13 24 29 15 28 15 30 -5 49 -33 31 -235 129 -345 168 -123 43 -152 44
-186 3z m444 -339 c0 -5 3 -9 8 -8 4 1 23 -5 42 -14 95 -43 116 -52 122 -52 4
-1 12 -6 19 -13 9 -9 4 -22 -26 -55 -21 -24 -41 -46 -44 -50 -4 -4 -7 1 -8 11
-1 11 -10 29 -20 40 -10 11 -29 33 -43 50 -23 30 -44 39 -53 24 -2 -5 -2 -3
-1 4 2 6 -4 17 -12 23 -8 7 -14 9 -14 5 0 -5 -3 -6 -6 -3 -8 8 14 48 26 48 6
0 10 -4 10 -10z"/>
<path d="M2502 3383 c-61 -21 -85 -61 -79 -133 7 -83 92 -270 123 -270 6 0 35
35 65 78 29 42 68 95 86 118 18 23 33 48 33 56 0 8 -19 49 -42 91 l-41 77 -51
-1 c-28 0 -70 -7 -94 -16z"/>
<path d="M4410 3272 c0 -22 26 -41 48 -36 21 6 22 7 5 19 -26 17 -53 26 -53
17z"/>
<path d="M4218 3248 c-9 -25 7 -111 21 -116 10 -3 12 2 7 22 -6 24 -4 26 29
26 19 0 35 4 35 9 0 9 -73 71 -83 71 -3 0 -7 -6 -9 -12z"/>
<path d="M4370 3223 c0 -5 -18 -28 -41 -52 -23 -23 -39 -44 -38 -45 2 -2 26
-6 53 -10 47 -6 48 -6 26 12 -19 15 -20 21 -10 47 6 16 16 32 22 36 7 4 7 9
-1 13 -6 4 -11 3 -11 -1z"/>
<path d="M4501 3219 c0 -9 -8 -20 -17 -23 -13 -5 -14 -9 -4 -22 18 -21 33 -3
27 32 -2 16 -5 22 -6 13z"/>
<path d="M4551 3201 c-1 -27 2 -32 11 -23 8 8 8 17 0 34 -10 22 -11 21 -11
-11z"/>
<path d="M4600 3226 c0 -2 7 -7 16 -10 8 -3 12 -2 9 4 -6 10 -25 14 -25 6z"/>
<path d="M3990 3180 c0 -5 5 -10 10 -10 6 0 10 5 10 10 0 6 -4 10 -10 10 -5 0
-10 -4 -10 -10z"/>
<path d="M2968 3042 c-48 -53 -95 -107 -103 -119 -14 -20 -14 -22 0 -17 9 4
15 1 15 -7 0 -8 12 -22 26 -33 25 -18 27 -18 52 1 43 32 163 189 156 206 -3 8
-17 20 -31 26 -16 7 -23 17 -19 26 11 31 -11 11 -96 -83z"/>
<path d="M4220 3105 c0 -9 6 -12 15 -9 8 4 15 10 15 15 0 5 -7 9 -15 9 -8 0
-15 -7 -15 -15z"/>
<path d="M4660 3068 c-12 -22 -12 -22 6 -6 10 10 15 20 12 24 -4 3 -12 -5 -18
-18z"/>
<path d="M4000 3059 c-26 -10 -66 -56 -57 -66 10 -9 107 20 107 32 0 26 -25
43 -50 34z"/>
<path d="M4085 3055 c42 -19 66 -19 41 0 -11 8 -31 15 -45 14 -26 -1 -26 -1 4
-14z"/>
<path d="M2467 3018 c-14 -8 -16 -13 -6 -24 7 -9 8 -14 1 -14 -12 0 49 -105
76 -133 17 -17 19 -16 40 6 l22 23 -56 75 c-31 41 -57 75 -58 76 -1 1 -9 -3
-19 -9z"/>
<path d="M4000 2975 c-7 -9 -11 -17 -9 -20 3 -2 10 5 17 15 14 24 10 26 -8 5z"/>
<path d="M4740 2947 l-25 -11 28 -4 c32 -4 46 4 31 17 -5 5 -20 4 -34 -2z"/>
<path d="M4018 2903 c6 -3 12 -8 12 -12 0 -4 10 -7 21 -8 29 -3 11 14 -21 20
-14 2 -19 2 -12 0z"/>
<path d="M4005 2840 c-4 -6 -3 -16 3 -22 13 -13 23 4 13 21 -7 10 -10 10 -16
1z"/>
<path d="M4030 2801 c0 -5 5 -13 10 -16 6 -3 10 -2 10 4 0 5 -4 13 -10 16 -5
3 -10 2 -10 -4z"/>
<path d="M2860 2765 c-7 -9 -11 -17 -9 -20 3 -2 10 5 17 15 14 24 10 26 -8 5z"/>
<path d="M4460 2758 c0 -7 5 -20 10 -28 8 -12 10 -9 10 13 0 15 -4 27 -10 27
-5 0 -10 -6 -10 -12z"/>
<path d="M3994 2738 c-3 -4 -18 -8 -35 -8 -29 0 -38 -13 -17 -26 7 -5 8 -3 3
5 -6 10 4 12 41 11 63 -3 74 -2 74 9 0 12 -59 20 -66 9z"/>
<path d="M4077 2720 c-3 -10 1 -24 9 -31 11 -9 14 -7 14 14 0 32 -16 44 -23
17z"/>
<path d="M2803 2708 c-17 -22 -49 -51 -181 -170 -29 -27 -49 -48 -44 -48 8 0
102 83 221 198 25 23 40 42 34 42 -6 0 -20 -10 -30 -22z"/>
<path d="M4036 2627 c3 -10 9 -15 12 -12 3 3 0 11 -7 18 -10 9 -11 8 -5 -6z"/>
<path d="M4652 2573 c-6 -2 -10 -9 -6 -14 8 -14 21 -11 28 6 6 15 1 17 -22 8z"/>
<path d="M1162 2497 c-27 -70 -39 -121 -47 -187 l-7 -55 77 -68 c75 -66 108
-80 132 -56 12 12 65 -14 98 -47 24 -24 59 -8 74 34 33 94 35 90 -95 223 -66
67 -137 141 -159 165 -23 24 -44 44 -47 44 -4 0 -15 -24 -26 -53z"/>
<path d="M4177 2500 c6 -21 18 -26 28 -10 3 5 13 7 23 4 14 -5 14 -3 -2 10
-29 23 -55 21 -49 -4z"/>
<path d="M4524 2499 c-11 -18 9 -26 46 -19 l35 7 -28 11 c-35 15 -44 15 -53 1z"/>
<path d="M4298 2478 c12 -12 25 -19 28 -15 4 4 -1 14 -12 22 -29 22 -41 18
-16 -7z"/>
<path d="M2585 2471 c-16 -10 -42 -32 -58 -48 l-27 -30 25 -11 c14 -6 25 -17
26 -24 1 -12 87 -92 117 -108 19 -10 6 -30 -48 -75 -49 -40 -81 -83 -41 -54
60 44 104 82 171 147 60 59 68 70 41 57 -31 -15 -33 -15 -28 -1 4 10 1 16 -8
16 -8 0 -15 5 -15 10 0 6 -7 10 -15 10 -7 0 -18 6 -22 14 -4 8 -27 34 -50 59
-23 25 -39 47 -36 51 12 11 -2 6 -32 -13z"/>
<path d="M4360 2480 c0 -5 5 -10 11 -10 5 0 7 5 4 10 -3 6 -8 10 -11 10 -2 0
-4 -4 -4 -10z"/>
<path d="M4200 2470 c0 -5 5 -10 10 -10 6 0 10 5 10 10 0 6 -4 10 -10 10 -5 0
-10 -4 -10 -10z"/>
<path d="M4398 2473 c6 -2 18 -2 25 0 6 3 1 5 -13 5 -14 0 -19 -2 -12 -5z"/>
<path d="M2509 2445 c-20 -13 -39 -31 -43 -40 -5 -14 -1 -13 22 3 26 19 70 63
61 61 -2 0 -20 -11 -40 -24z"/>
<path d="M4340 2441 c0 -5 5 -13 10 -16 6 -3 10 -2 10 4 0 5 -4 13 -10 16 -5
3 -10 2 -10 -4z"/>
<path d="M4090 2414 c0 -8 5 -12 10 -9 6 4 8 11 5 16 -9 14 -15 11 -15 -7z"/>
<path d="M3610 2399 c0 -6 -9 -8 -20 -4 -11 4 -19 3 -18 -2 3 -10 -43 -76
-104 -148 -20 -25 -39 -54 -43 -65 -3 -11 -14 -20 -23 -20 -14 -1 -12 -4 7
-20 24 -21 51 -26 51 -12 0 5 9 19 20 32 11 13 34 42 50 64 17 23 46 62 66 89
19 26 32 52 29 57 -4 6 1 7 12 3 17 -6 17 -5 -1 15 -22 25 -26 27 -26 11z"/>
<path d="M4350 2374 c0 -13 4 -24 8 -24 12 0 47 40 36 41 -5 0 -17 2 -26 4
-13 2 -18 -3 -18 -21z"/>
<path d="M4545 2370 c-3 -5 -2 -10 4 -10 5 0 13 5 16 10 3 6 2 10 -4 10 -5 0
-13 -4 -16 -10z"/>
<path d="M2392 2273 c-15 -16 -21 -23 -13 -16 9 6 32 18 51 26 28 13 31 16 13
16 -13 1 -35 -11 -51 -26z"/>
<path d="M4964 2235 c-4 -11 -46 -78 -92 -148 -83 -125 -84 -129 -76 -169 l9
-41 25 36 c14 20 53 76 87 126 35 49 67 93 73 96 12 7 5 77 -10 105 -7 13 -10
12 -16 -5z"/>
<path d="M2800 2179 c-14 -12 -41 -35 -60 -52 -19 -18 -64 -56 -100 -86 -113
-95 -104 -94 20 0 91 70 189 158 175 158 -5 0 -21 -9 -35 -20z"/>
<path d="M2350 2163 c0 -6 8 -17 18 -24 16 -13 16 -13 2 6 -8 11 -16 22 -17
24 -2 2 -3 0 -3 -6z"/>
<path d="M3958 2073 c-29 -43 -66 -98 -82 -123 -16 -25 -33 -48 -38 -51 -19
-12 117 -86 210 -115 55 -16 65 -17 57 -5 -3 5 0 15 7 23 12 12 29 37 97 143
14 22 34 49 43 59 13 15 15 23 6 33 -13 17 -212 113 -233 113 -8 0 -38 -35
-67 -77z"/>
<path d="M1404 1864 c3 -9 6 -18 6 -20 0 -2 12 -4 26 -4 16 0 24 5 22 13 -3 6
-10 12 -15 12 -6 0 -15 3 -19 8 -13 13 -26 7 -20 -9z"/>
<path d="M2404 1864 c-18 -14 -18 -15 4 -4 12 6 22 13 22 15 0 8 -5 6 -26 -11z"/>
<path d="M2036 1788 c-80 -41 -121 -57 -128 -50 -6 6 -16 8 -23 6 -7 -3 -35
18 -62 47 l-50 52 -159 -10 c-177 -12 -232 -26 -246 -62 -13 -36 52 -97 115
-106 26 -4 47 -11 47 -15 0 -5 25 -12 57 -16 57 -7 139 -49 112 -58 -42 -13
-37 -16 26 -11 39 3 90 12 115 20 45 15 31 15 -47 0 -16 -3 -34 -1 -42 4 -24
16 10 39 68 47 57 7 73 19 40 29 -26 9 -16 19 36 35 63 20 265 131 265 145 0
3 -1 4 -2 4 -2 -1 -56 -29 -122 -61z"/>
<path d="M2160 1722 c-41 -21 -102 -50 -135 -65 -36 -16 -48 -25 -30 -21 42 8
276 126 245 124 -3 -1 -39 -17 -80 -38z"/>
<path d="M4305 1680 c11 -5 34 -8 50 -8 29 0 29 0 5 8 -14 4 -36 8 -50 8 -23
1 -23 0 -5 -8z"/>
<path d="M1910 1610 c-9 -6 -10 -10 -3 -10 6 0 15 5 18 10 8 12 4 12 -15 0z"/>
</g>
</svg>
